<mxfile host="app.diagrams.net" modified="2021-05-19T09:38:29.491Z" agent="5.0 (Macintosh; Intel Mac OS X 10_15_7) AppleWebKit/537.36 (KHTML, like Gecko) Chrome/90.0.4430.212 Safari/537.36" etag="7UpHJdAVDsDh76ym-aeA" version="14.5.10" type="github">
  <diagram id="prtHgNgQTEPvFCAcTncT" name="Page-1">
    <mxGraphModel dx="2066" dy="1185" grid="0" gridSize="10" guides="1" tooltips="1" connect="1" arrows="1" fold="1" page="1" pageScale="1" pageWidth="900" pageHeight="1600" math="0" shadow="0">
      <root>
        <mxCell id="0" />
        <mxCell id="1" parent="0" />
        <mxCell id="_XNJG8VsHc_F8Rejg5xD-3" value="" style="edgeStyle=orthogonalEdgeStyle;rounded=0;orthogonalLoop=1;jettySize=auto;html=1;fontColor=#FFFFFF;fillColor=#d5e8d4;strokeColor=#82b366;strokeWidth=2;" edge="1" parent="1" source="_XNJG8VsHc_F8Rejg5xD-1" target="_XNJG8VsHc_F8Rejg5xD-2">
          <mxGeometry relative="1" as="geometry">
            <Array as="points">
              <mxPoint x="450" y="440" />
              <mxPoint x="125" y="440" />
            </Array>
          </mxGeometry>
        </mxCell>
        <mxCell id="_XNJG8VsHc_F8Rejg5xD-5" value="" style="edgeStyle=orthogonalEdgeStyle;rounded=0;orthogonalLoop=1;jettySize=auto;html=1;fontColor=#FFFFFF;strokeWidth=2;fillColor=#d5e8d4;strokeColor=#82b366;" edge="1" parent="1" source="_XNJG8VsHc_F8Rejg5xD-1" target="_XNJG8VsHc_F8Rejg5xD-4">
          <mxGeometry relative="1" as="geometry">
            <Array as="points">
              <mxPoint x="450" y="440" />
              <mxPoint x="345" y="440" />
            </Array>
          </mxGeometry>
        </mxCell>
        <mxCell id="_XNJG8VsHc_F8Rejg5xD-9" style="edgeStyle=orthogonalEdgeStyle;rounded=0;orthogonalLoop=1;jettySize=auto;html=1;fontColor=#FFFFFF;strokeWidth=2;fillColor=#d5e8d4;strokeColor=#82b366;" edge="1" parent="1" source="_XNJG8VsHc_F8Rejg5xD-1" target="_XNJG8VsHc_F8Rejg5xD-8">
          <mxGeometry relative="1" as="geometry">
            <Array as="points">
              <mxPoint x="450" y="440" />
              <mxPoint x="548" y="440" />
            </Array>
          </mxGeometry>
        </mxCell>
        <mxCell id="_XNJG8VsHc_F8Rejg5xD-10" style="edgeStyle=orthogonalEdgeStyle;rounded=0;orthogonalLoop=1;jettySize=auto;html=1;fontColor=#FFFFFF;strokeWidth=2;entryX=0.5;entryY=0;entryDx=0;entryDy=0;fillColor=#d5e8d4;strokeColor=#82b366;" edge="1" parent="1" source="_XNJG8VsHc_F8Rejg5xD-1" target="_XNJG8VsHc_F8Rejg5xD-11">
          <mxGeometry relative="1" as="geometry">
            <mxPoint x="930" y="480" as="targetPoint" />
            <Array as="points">
              <mxPoint x="450" y="440" />
              <mxPoint x="759" y="440" />
            </Array>
          </mxGeometry>
        </mxCell>
        <mxCell id="_XNJG8VsHc_F8Rejg5xD-1" value="站群管理系统" style="rounded=1;whiteSpace=wrap;html=1;fillColor=#d5e8d4;strokeColor=#82b366;gradientColor=#ffffff;shadow=0;glass=0;sketch=0;strokeWidth=3;" vertex="1" parent="1">
          <mxGeometry x="280" y="351" width="340" height="40" as="geometry" />
        </mxCell>
        <mxCell id="_XNJG8VsHc_F8Rejg5xD-41" value="" style="group" vertex="1" connectable="0" parent="1">
          <mxGeometry x="240" y="490" width="190" height="146" as="geometry" />
        </mxCell>
        <mxCell id="_XNJG8VsHc_F8Rejg5xD-4" value="基础扩展功能" style="whiteSpace=wrap;html=1;rounded=1;shadow=0;strokeColor=#82b366;strokeWidth=2;fillColor=#d5e8d4;gradientColor=#ffffff;glass=0;sketch=0;" vertex="1" parent="_XNJG8VsHc_F8Rejg5xD-41">
          <mxGeometry x="45" width="120" height="40" as="geometry" />
        </mxCell>
        <mxCell id="_XNJG8VsHc_F8Rejg5xD-27" value="数据备份" style="rounded=1;whiteSpace=wrap;html=1;shadow=0;glass=0;sketch=0;strokeWidth=1;fillColor=#d5e8d4;strokeColor=#82b366;gradientColor=#ffffff;" vertex="1" parent="_XNJG8VsHc_F8Rejg5xD-41">
          <mxGeometry y="50" width="90" height="28" as="geometry" />
        </mxCell>
        <mxCell id="_XNJG8VsHc_F8Rejg5xD-28" value="定时任务" style="rounded=1;whiteSpace=wrap;html=1;shadow=0;glass=0;sketch=0;strokeWidth=1;fillColor=#d5e8d4;strokeColor=#82b366;gradientColor=#ffffff;" vertex="1" parent="_XNJG8VsHc_F8Rejg5xD-41">
          <mxGeometry y="85" width="90" height="28" as="geometry" />
        </mxCell>
        <mxCell id="_XNJG8VsHc_F8Rejg5xD-29" value="调查问卷" style="rounded=1;whiteSpace=wrap;html=1;shadow=0;glass=0;sketch=0;strokeWidth=1;fillColor=#d5e8d4;strokeColor=#82b366;gradientColor=#ffffff;" vertex="1" parent="_XNJG8VsHc_F8Rejg5xD-41">
          <mxGeometry x="100" y="50" width="90" height="28" as="geometry" />
        </mxCell>
        <mxCell id="_XNJG8VsHc_F8Rejg5xD-30" value="留言评论" style="rounded=1;whiteSpace=wrap;html=1;shadow=0;glass=0;sketch=0;strokeWidth=1;fillColor=#d5e8d4;strokeColor=#82b366;gradientColor=#ffffff;" vertex="1" parent="_XNJG8VsHc_F8Rejg5xD-41">
          <mxGeometry y="118" width="90" height="28" as="geometry" />
        </mxCell>
        <mxCell id="_XNJG8VsHc_F8Rejg5xD-31" value="数据采集" style="rounded=1;whiteSpace=wrap;html=1;shadow=0;glass=0;sketch=0;strokeWidth=1;align=center;fillColor=#d5e8d4;strokeColor=#82b366;gradientColor=#ffffff;" vertex="1" parent="_XNJG8VsHc_F8Rejg5xD-41">
          <mxGeometry x="100" y="85" width="90" height="28" as="geometry" />
        </mxCell>
        <mxCell id="_XNJG8VsHc_F8Rejg5xD-32" value="数据统计" style="rounded=1;whiteSpace=wrap;html=1;shadow=0;glass=0;sketch=0;strokeWidth=1;fillColor=#d5e8d4;strokeColor=#82b366;gradientColor=#ffffff;" vertex="1" parent="_XNJG8VsHc_F8Rejg5xD-41">
          <mxGeometry x="100" y="118" width="90" height="28" as="geometry" />
        </mxCell>
        <mxCell id="_XNJG8VsHc_F8Rejg5xD-42" value="" style="group" vertex="1" connectable="0" parent="1">
          <mxGeometry x="30" y="487" width="190" height="149" as="geometry" />
        </mxCell>
        <mxCell id="_XNJG8VsHc_F8Rejg5xD-2" value="高级扩展功能" style="rounded=1;whiteSpace=wrap;html=1;shadow=0;strokeColor=#82b366;strokeWidth=2;fillColor=#d5e8d4;gradientColor=#ffffff;glass=0;sketch=0;" vertex="1" parent="_XNJG8VsHc_F8Rejg5xD-42">
          <mxGeometry x="35" width="120" height="40" as="geometry" />
        </mxCell>
        <mxCell id="_XNJG8VsHc_F8Rejg5xD-33" value="网站群" style="rounded=1;whiteSpace=wrap;html=1;shadow=0;glass=0;sketch=0;strokeWidth=1;fillColor=#d5e8d4;strokeColor=#82b366;gradientColor=#ffffff;" vertex="1" parent="_XNJG8VsHc_F8Rejg5xD-42">
          <mxGeometry y="53" width="90" height="28" as="geometry" />
        </mxCell>
        <mxCell id="_XNJG8VsHc_F8Rejg5xD-34" value="集群部署" style="rounded=1;whiteSpace=wrap;html=1;shadow=0;glass=0;sketch=0;strokeWidth=1;fillColor=#d5e8d4;strokeColor=#82b366;gradientColor=#ffffff;" vertex="1" parent="_XNJG8VsHc_F8Rejg5xD-42">
          <mxGeometry y="88" width="90" height="28" as="geometry" />
        </mxCell>
        <mxCell id="_XNJG8VsHc_F8Rejg5xD-35" value="多端展示" style="rounded=1;whiteSpace=wrap;html=1;shadow=0;glass=0;sketch=0;strokeWidth=1;fillColor=#d5e8d4;strokeColor=#82b366;gradientColor=#ffffff;" vertex="1" parent="_XNJG8VsHc_F8Rejg5xD-42">
          <mxGeometry x="100" y="53" width="90" height="28" as="geometry" />
        </mxCell>
        <mxCell id="_XNJG8VsHc_F8Rejg5xD-36" value="全站分发" style="rounded=1;whiteSpace=wrap;html=1;shadow=0;glass=0;sketch=0;strokeWidth=1;fillColor=#d5e8d4;strokeColor=#82b366;gradientColor=#ffffff;" vertex="1" parent="_XNJG8VsHc_F8Rejg5xD-42">
          <mxGeometry y="121" width="90" height="28" as="geometry" />
        </mxCell>
        <mxCell id="_XNJG8VsHc_F8Rejg5xD-37" value="资源共享" style="rounded=1;whiteSpace=wrap;html=1;shadow=0;glass=0;sketch=0;strokeWidth=1;align=center;fillColor=#d5e8d4;strokeColor=#82b366;gradientColor=#ffffff;" vertex="1" parent="_XNJG8VsHc_F8Rejg5xD-42">
          <mxGeometry x="100" y="88" width="90" height="28" as="geometry" />
        </mxCell>
        <mxCell id="_XNJG8VsHc_F8Rejg5xD-38" value="跨站点检索" style="rounded=1;whiteSpace=wrap;html=1;shadow=0;glass=0;sketch=0;strokeWidth=1;fillColor=#d5e8d4;strokeColor=#82b366;gradientColor=#ffffff;" vertex="1" parent="_XNJG8VsHc_F8Rejg5xD-42">
          <mxGeometry x="100" y="121" width="90" height="28" as="geometry" />
        </mxCell>
        <mxCell id="_XNJG8VsHc_F8Rejg5xD-8" value="核心内容管理" style="whiteSpace=wrap;html=1;rounded=1;shadow=0;strokeColor=#82b366;strokeWidth=2;fillColor=#d5e8d4;gradientColor=#ffffff;glass=0;sketch=0;" vertex="1" parent="1">
          <mxGeometry x="488" y="490" width="120" height="40" as="geometry" />
        </mxCell>
        <mxCell id="_XNJG8VsHc_F8Rejg5xD-21" value="内容管理" style="rounded=1;whiteSpace=wrap;html=1;shadow=0;glass=0;sketch=0;strokeWidth=1;fillColor=#d5e8d4;strokeColor=#82b366;gradientColor=#ffffff;" vertex="1" parent="1">
          <mxGeometry x="450" y="540" width="90" height="28" as="geometry" />
        </mxCell>
        <mxCell id="_XNJG8VsHc_F8Rejg5xD-22" value="栏目管理" style="rounded=1;whiteSpace=wrap;html=1;shadow=0;glass=0;sketch=0;strokeWidth=1;fillColor=#d5e8d4;strokeColor=#82b366;gradientColor=#ffffff;" vertex="1" parent="1">
          <mxGeometry x="450" y="575" width="90" height="28" as="geometry" />
        </mxCell>
        <mxCell id="_XNJG8VsHc_F8Rejg5xD-23" value="分发机制" style="rounded=1;whiteSpace=wrap;html=1;shadow=0;glass=0;sketch=0;strokeWidth=1;fillColor=#d5e8d4;strokeColor=#82b366;gradientColor=#ffffff;" vertex="1" parent="1">
          <mxGeometry x="550" y="540" width="90" height="28" as="geometry" />
        </mxCell>
        <mxCell id="_XNJG8VsHc_F8Rejg5xD-24" value="站点管理" style="rounded=1;whiteSpace=wrap;html=1;shadow=0;glass=0;sketch=0;strokeWidth=1;fillColor=#d5e8d4;strokeColor=#82b366;gradientColor=#ffffff;" vertex="1" parent="1">
          <mxGeometry x="450" y="608" width="90" height="28" as="geometry" />
        </mxCell>
        <mxCell id="_XNJG8VsHc_F8Rejg5xD-25" value="模板管理" style="rounded=1;whiteSpace=wrap;html=1;shadow=0;glass=0;sketch=0;strokeWidth=1;align=center;fillColor=#d5e8d4;strokeColor=#82b366;gradientColor=#ffffff;" vertex="1" parent="1">
          <mxGeometry x="550" y="575" width="90" height="28" as="geometry" />
        </mxCell>
        <mxCell id="_XNJG8VsHc_F8Rejg5xD-26" value="发布机制" style="rounded=1;whiteSpace=wrap;html=1;shadow=0;glass=0;sketch=0;strokeWidth=1;fillColor=#d5e8d4;strokeColor=#82b366;gradientColor=#ffffff;" vertex="1" parent="1">
          <mxGeometry x="550" y="608" width="90" height="28" as="geometry" />
        </mxCell>
        <mxCell id="_XNJG8VsHc_F8Rejg5xD-11" value="系统底层功能" style="whiteSpace=wrap;html=1;rounded=1;shadow=0;strokeColor=#82b366;strokeWidth=2;fillColor=#d5e8d4;gradientColor=#ffffff;glass=0;sketch=0;" vertex="1" parent="1">
          <mxGeometry x="699" y="490" width="120" height="40" as="geometry" />
        </mxCell>
        <mxCell id="_XNJG8VsHc_F8Rejg5xD-15" value="权限机制" style="rounded=1;whiteSpace=wrap;html=1;shadow=0;glass=0;sketch=0;strokeWidth=1;fillColor=#d5e8d4;strokeColor=#82b366;gradientColor=#ffffff;" vertex="1" parent="1">
          <mxGeometry x="664" y="539" width="90" height="28" as="geometry" />
        </mxCell>
        <mxCell id="_XNJG8VsHc_F8Rejg5xD-16" value="安全检测机制" style="rounded=1;whiteSpace=wrap;html=1;shadow=0;glass=0;sketch=0;strokeWidth=1;fillColor=#d5e8d4;strokeColor=#82b366;gradientColor=#ffffff;" vertex="1" parent="1">
          <mxGeometry x="664" y="574" width="90" height="28" as="geometry" />
        </mxCell>
        <mxCell id="_XNJG8VsHc_F8Rejg5xD-17" value="插件机制" style="rounded=1;whiteSpace=wrap;html=1;shadow=0;glass=0;sketch=0;strokeWidth=1;fillColor=#d5e8d4;strokeColor=#82b366;gradientColor=#ffffff;" vertex="1" parent="1">
          <mxGeometry x="764" y="539" width="90" height="28" as="geometry" />
        </mxCell>
        <mxCell id="_XNJG8VsHc_F8Rejg5xD-18" value="国际化支持" style="rounded=1;whiteSpace=wrap;html=1;shadow=0;glass=0;sketch=0;strokeWidth=1;fillColor=#d5e8d4;strokeColor=#82b366;gradientColor=#ffffff;" vertex="1" parent="1">
          <mxGeometry x="664" y="607" width="90" height="28" as="geometry" />
        </mxCell>
        <mxCell id="_XNJG8VsHc_F8Rejg5xD-19" value="基础业务平台" style="rounded=1;whiteSpace=wrap;html=1;shadow=0;glass=0;sketch=0;strokeWidth=1;align=center;fillColor=#d5e8d4;strokeColor=#82b366;gradientColor=#ffffff;" vertex="1" parent="1">
          <mxGeometry x="764" y="574" width="90" height="28" as="geometry" />
        </mxCell>
        <mxCell id="_XNJG8VsHc_F8Rejg5xD-20" value="基础框架" style="rounded=1;whiteSpace=wrap;html=1;shadow=0;glass=0;sketch=0;strokeWidth=1;fillColor=#d5e8d4;strokeColor=#82b366;gradientColor=#ffffff;" vertex="1" parent="1">
          <mxGeometry x="764" y="607" width="90" height="28" as="geometry" />
        </mxCell>
      </root>
    </mxGraphModel>
  </diagram>
</mxfile>
